<?xml version="1.0" encoding="utf-8"?>
<!-- Generator: Adobe Illustrator 23.1.0, SVG Export Plug-In . SVG Version: 6.00 Build 0)  -->
<svg version="1.1" id="Layer_1" xmlns="http://www.w3.org/2000/svg" xmlns:xlink="http://www.w3.org/1999/xlink" x="0px" y="0px"
	 viewBox="0 0 249.3 103.9" style="enable-background:new 0 0 249.3 103.9;" xml:space="preserve">
<style type="text/css">
	.st0{fill:#242265;}
	.st1{fill:#00D8FF;}
	.st2{display:none;}
	.st3{display:inline;}
</style>
<g>
	<g>
		<path class="st0" d="M8.8,42.5l0.1,19.4c0.1,9.8,5.4,18.9,13.9,23.8l16.8,9.6c8.5,4.9,19,4.8,27.5-0.2l16.7-9.8
			c8.5-5,13.7-14.1,13.6-23.9L97.4,42c-0.1-9.8-5.4-18.9-13.9-23.8L66.7,8.7c-8.5-4.9-19-4.8-27.5,0.2l-16.7,9.8
			C14,23.6,8.8,32.7,8.8,42.5"/>
		<g>
			<path class="st1" d="M62.8,71.1c0.8,1.1,1.6,2,2,3.2c0.9,2.3,0.7,4.3-0.9,6.2c-1.8,2.2-5.2,2.4-7.4,0.7c-1.6-1.3-2.2-3-2.2-5
				c0-1.4,0.6-2.6,1.1-3.9c0.5-1.2,1.1-2.3,1.4-3.5c0.4-1.5,0.5-3,0.4-4.6c-0.1-1.6-0.3-3.1-0.5-4.7c-0.4-2.2-1.2-4.3-2.8-6
				c-1.5-1.6-3.3-2.6-5.2-3.4c-0.9-0.4-1.7-0.8-2.6-1.1c-2-0.8-4.1-1.1-6.3-0.9c-1.4,0.1-2.7,0.4-4.1,0.4c-1.7,0-3.2-0.4-4.5-1.5
				c-1.9-1.6-2.6-4.7-1.1-7c1.7-2.7,5.1-3.3,7.8-1.7c0.9,0.6,1.7,1.3,2.3,2.2c0.5,0.8,1.1,1.5,1.7,2.3c0.9,1.3,2,2.4,3.3,3.3
				c0.9,0.6,1.9,1.1,3,1.5c1,0.5,2,0.9,3,1.3c1.8,0.7,3.6,1,5.5,0.8c1.6-0.2,3.2-0.7,4.6-1.5c1.2-0.7,2.3-1.6,3.5-2.4
				c1.2-0.9,2.3-1.8,3.3-3.1c0.7-0.9,1.2-2,1.7-3c0.7-1.4,1.1-2.9,2.1-4.2c1-1.3,2.2-2.2,3.8-2.5c1.9-0.4,3.7,0.2,5,1.6
				c1.2,1.3,1.7,2.9,1.4,4.6c-0.3,1.8-1.4,3.2-3,4.1c-1.5,0.8-3.2,1-4.9,1.2c-1.8,0.2-3.5,0.4-5.1,1.2c-0.6,0.3-1.1,0.6-1.6,0.9
				c-1.2,0.7-2.2,1.5-3.3,2.3c-1.4,1.1-2.7,2.2-3.6,3.7c-0.7,1.2-1.2,2.5-1.5,3.8c-0.3,1.5-0.2,3,0,4.5c0.1,1.2,0.2,2.4,0.5,3.6
				c0.3,1.7,0.9,3.2,1.8,4.6C61.9,69.8,62.5,70.4,62.8,71.1"/>
			<g>
				<path class="st1" d="M67.8,59.3c1.3,0.2,2.5,0.3,3.6,0.8c2.2,1,3.6,2.6,3.8,5c0.2,2.8-1.9,5.4-4.7,5.7c-2.1,0.2-3.7-0.5-5.1-2
					c-0.9-1-1.5-2.3-2-3.5c-0.5-1.2-0.9-2.4-1.5-3.5c-0.7-1.4-1.7-2.5-2.9-3.5s-2.4-2-3.7-2.9c-1.8-1.3-3.9-2.2-6.2-2.3
					C47,53,45,53.5,43.1,54.3c-0.9,0.3-1.8,0.7-2.6,1c-2,0.9-3.7,2.2-5.1,3.9c-0.9,1.1-1.7,2.2-2.6,3.2c-1.2,1.2-2.5,1.9-4.2,2.1
					c-2.5,0.2-5.1-1.5-5.7-4.2c-0.7-3.1,1.2-6,4.3-6.7c1-0.2,2.1-0.3,3.1-0.1c0.9,0.2,1.9,0.3,2.8,0.4c1.6,0.2,3.1,0.2,4.7,0
					c1.1-0.2,2.1-0.6,3.2-1c1-0.4,2-0.8,3-1.2c1.7-0.8,3.3-1.8,4.5-3.3c1-1.3,1.8-2.7,2.2-4.3c0.3-1.4,0.5-2.8,0.7-4.2
					c0.2-1.5,0.3-3,0.1-4.5c-0.2-1.2-0.5-2.3-0.9-3.3c-0.5-1.5-1.2-2.8-1.5-4.4c-0.2-1.6,0-3.1,0.9-4.5c1.1-1.6,2.7-2.5,4.7-2.4
					c1.8,0,3.2,0.9,4.3,2.3c1.1,1.5,1.3,3.2,0.8,5c-0.5,1.7-1.6,3-2.7,4.3c-1.1,1.3-2.2,2.8-2.8,4.4c-0.2,0.6-0.4,1.2-0.5,1.8
					c-0.3,1.3-0.5,2.6-0.7,4c-0.2,1.7-0.4,3.5,0.1,5.2c0.4,1.3,0.9,2.6,1.7,3.7c0.9,1.2,2,2.2,3.1,3.2c1,0.8,1.9,1.5,2.9,2.3
					c1.4,1,2.9,1.6,4.5,2C66.2,59,67.1,59.1,67.8,59.3"/>
			</g>
		</g>
	</g>
	<g>
		<path class="st0" d="M139.9,42.8v0.2L126,78.1h-6.2V78l5.3-12.1L115,42.9v-0.2h6.3l5,12.1c0.6,1.4,1.1,2.9,1.6,4.6
			c0.5-1.8,0.9-3.2,1.4-4.6l4.6-12.1L139.9,42.8L139.9,42.8z"/>
		<path class="st0" d="M144.8,30.4h22.5v5.8h-16.3v10.4h14.6v5.6h-14.6v14.3h-6.3L144.8,30.4L144.8,30.4z"/>
		<path class="st0" d="M171.9,34.4c0-1.9,1.4-3.5,3.6-3.5s3.6,1.5,3.6,3.5c0,1.9-1.4,3.4-3.6,3.4C173.2,37.8,171.9,36.3,171.9,34.4z
			 M172.6,42.8h5.8v23.6h-5.8V42.8z"/>
		<path class="st0" d="M185.1,28.3h5.8l0.1,38.2h-5.8V28.3z"/>
		<path class="st0" d="M219.2,53.8c0,0.8-0.1,1.8-0.2,2.8h-17c0.7,3.8,3.7,5.8,7.5,5.8c2.7,0,4.6-0.8,6.3-2.2l2.4,3.7
			c-2.7,2.2-5.6,3.3-9.2,3.3c-7.6,0-12.8-5.1-12.8-12.6c0-6.9,5-12.4,12.2-12.4C215.1,42.1,219.2,46.7,219.2,53.8z M202.1,52.6h11.7
			c-0.2-3.8-2.4-5.7-5.4-5.7C205.2,46.9,202.7,48.9,202.1,52.6z"/>
		<path class="st0" d="M222.5,64.3l2.3-4.1c2,1.3,4.2,2,6.5,2c2.1,0,3.5-1,3.5-2.4c0-1.8-2.2-2.6-4.6-3.5c-3.8-1.4-6.7-3.4-6.7-7.3
			c0-4.3,3.9-6.6,8.4-6.6c2.7,0,5.2,0.6,7.7,2.1l-2,3.9c-1.8-0.9-3.7-1.4-5.3-1.4c-1.8,0-3.3,0.5-3.3,2c0,1.5,1.8,2.4,4.3,3.3
			c4.1,1.5,7.1,3.5,7.1,7.4c0,4.4-3.6,7.2-8.7,7.2C228.2,66.9,225.3,66.1,222.5,64.3z"/>
	</g>
	<g class="st2">
		<g class="st3">
			<path class="st0" d="M116.7,88.2H115v-1h1.7V85c0-1.6,0.8-2.9,2.6-2.9c0.8,0,1.4,0.3,2.1,0.7l-0.5,0.8c-0.4-0.3-0.8-0.5-1.4-0.5
				c-1,0-1.6,0.6-1.6,1.8v2.3h2.6v1h-2.6v7h-1.1C116.7,95.2,116.7,88.2,116.7,88.2z"/>
			<path class="st0" d="M121.1,91.3c0-2.4,1.7-4.2,4.1-4.2c2.4,0,4.1,1.7,4.1,4.2s-1.7,4.2-4.1,4.2
				C122.8,95.4,121.1,93.7,121.1,91.3z M128.2,91.3c0-1.8-1.2-3.2-3-3.2c-1.8,0-3,1.3-3,3.2c0,1.8,1.2,3.2,3,3.2
				C127,94.4,128.2,93.1,128.2,91.3z"/>
			<path class="st0" d="M136.2,87.4l-0.3,1c-0.3-0.1-0.6-0.2-1.1-0.2c-1.3,0-2.2,0.9-2.2,2.5v4.6h-1.1v-8h0.8l0.2,1.2
				c0.4-0.8,1.2-1.3,2.3-1.3C135.4,87.1,135.9,87.2,136.2,87.4z"/>
			<path class="st0" d="M148.4,90.4v4.9h-1.1v-4.9c0-1.3-0.5-2.2-1.9-2.2c-1.7,0-2.6,1.4-2.6,3.2v3.9h-1.1V82.3h1.1v5.2
				c0,0.4,0,0.8,0,1.2c0.5-0.9,1.4-1.6,2.8-1.6C147.5,87.1,148.4,88.3,148.4,90.4z"/>
			<path class="st0" d="M151.5,93v-4.7l-1.6-0.1v-0.9h1.6v-2.7h1.1v2.7h2.8v1h-2.8V93c0,1,0.4,1.3,1.1,1.3c0.6,0,1.1-0.2,1.6-0.5
				l0.5,0.8c-0.6,0.4-1.3,0.8-2.2,0.8C152.3,95.4,151.5,94.6,151.5,93z"/>
			<path class="st0" d="M169,90.2v5h-1.1v-5c0-1.3-0.6-2.1-1.8-2.1c-1.6,0-2.4,1.5-2.4,2.9v4.1h-1.1v-5.1c0-1.1-0.6-2-1.8-2
				c-1.6,0-2.4,1.5-2.4,2.9v4.1h-1.1v-8h0.8l0.3,1.4c0.5-1,1.4-1.5,2.6-1.5c1.2,0,2.1,0.6,2.5,1.6c0.5-1,1.4-1.6,2.8-1.6
				C168,87.1,169,88.3,169,90.2z"/>
			<path class="st0" d="M171.5,82.3h1.1l0,12.9h-1.1L171.5,82.3z"/>
		</g>
	</g>
</g>
</svg>
