<svg version="1.1" viewBox="0 0 1007 1089" width="1007" height="1089" xmlns="http://www.w3.org/2000/svg">
 <path d="m505 2.14e-5a300 300 0 0 0-151 40.9l-182 106a300 300 0 0 0-149 261h-2e-3l0.98 211a300 300 0 0 0 151 259l183 105a300 300 0 0 0 300-1.42l182-106a300 300 0 0 0 149-261l-0.98-211a300 300 0 0 0-151-259l-183-105a300 300 0 0 0-149-39.5zm-24.3 327c18.8-0.28 37.4 8.14 48.9 24 23.1 31.9 6.76 68.7-10.8 98.2-9.48 15.9-18.7 32.3-22.9 50.5a190 190 0 0 0-4.14 33.5c0 14 0.763 28 3.49 41.5 3.71 18.3 12.6 34.9 21.8 51 16.9 29.9 32.4 67 8.61 98.4-19 25.1-55.7 30.5-81.7 12.1-31.7-22.5-29.4-63.7-12.5-94.4 8.61-15.7 18.9-30.4 25.9-47 7.41-17.3 10.2-35.7 11-54.4v-4.69c-0.109-19.6-2.51-38.7-9.92-57-6.65-16.7-16.6-31.6-24.9-47.5-16.1-31.1-17.6-72.3 14.6-94.1 9.85-6.7 21.2-10 32.4-10.2z" fill="#c3c3c3" opacity=".19"/>
 <path d="m1.01 450 1.28 219a312 312 0 0 0 157 269l191 109a312 312 0 0 0 312-1.83l189-111a312 312 0 0 0 154-271l-1.32-219a312 312 0 0 0-157-269l-191-109a312 312 0 0 0-312 1.81l-189 111a312 312 0 0 0-154 271" fill="none" opacity=".0817" stroke="#242265" stroke-width="2"/>
</svg>
